<?xml version="1.0" encoding="utf-8"?>
<!-- Generator: Adobe Illustrator 22.0.1, SVG Export Plug-In . SVG Version: 6.00 Build 0)  -->
<svg version="1.1" id="レイヤー_1" xmlns="http://www.w3.org/2000/svg" xmlns:xlink="http://www.w3.org/1999/xlink" x="0px"
	 y="0px" viewBox="0 0 112 32" enable-background="new 0 0 112 32" xml:space="preserve">
<g>
	<path fill="#FDFEFE" d="M21.6,14.4c1.4,2.1,2.9,4.2,4.3,6.4H26c-0.2-2.3-0.2-4.6-0.2-7V1.3h2.9v23.5h-2.9l-9.2-13.1
		c-1.6-2.3-3-4.4-4.3-6.4h-0.1c0.2,2.1,0.2,4.6,0.2,7.5v12H9.5V1.3h2.8L21.6,14.4z"/>
	<path fill="#FDFEFE" d="M37.5,22.2h12v2.6H34.6V1.3h14.3v2.6H37.5v7.6h10.1V14H37.5V22.2z"/>
	<path fill="#FDFEFE" d="M62,10.8l6.5-9.5h3.2l-8,11.6l8.3,11.9h-3.2l-6.9-10h-0.1l-6.9,10h-3.2l8.4-12L52.3,1.3h3.1L62,10.8
		L62,10.8z"/>
	<path fill="#FDFEFE" d="M83.8,24.8H81V3.9h-7.8V1.3h18.6v2.6h-7.8V24.8z"/>
</g>
<rect y="31" fill="#FEFEFF" width="106" height="1"/>
<polyline fill="#FEFEFF" points="101,23 101,32 112,32 "/>
</svg>
