<?xml version="1.0" encoding="utf-8"?>
<!-- Generator: Adobe Illustrator 22.0.1, SVG Export Plug-In . SVG Version: 6.00 Build 0)  -->
<svg version="1.1" id="レイヤー_1" xmlns="http://www.w3.org/2000/svg" xmlns:xlink="http://www.w3.org/1999/xlink" x="0px"
	 y="0px" viewBox="0 0 112 32" style="enable-background:new 0 0 112 32;" xml:space="preserve">
<style type="text/css">
	.st0{fill:#FFFFFF;}
</style>
<rect y="31" class="st0" width="106" height="1"/>
<polyline class="st0" points="101,23 101,32 112,32 "/>
<g>
	<path class="st0" d="M21.7,5.2c-1-0.7-2.3-1.1-4-1.1c-0.7,0-1.3,0.1-1.9,0.2c-0.6,0.1-1.2,0.3-1.7,0.7c-0.5,0.3-0.9,0.7-1.2,1.2
		c-0.3,0.5-0.4,1.1-0.4,1.9c0,0.7,0.2,1.3,0.6,1.7c0.4,0.4,1,0.8,1.7,1.1c0.7,0.3,1.5,0.5,2.4,0.7c0.9,0.2,1.8,0.4,2.7,0.6
		c0.9,0.2,1.8,0.5,2.7,0.8s1.7,0.7,2.4,1.2c0.7,0.5,1.3,1.1,1.7,1.9c0.4,0.8,0.6,1.7,0.6,2.9c0,1.2-0.3,2.3-0.8,3.2
		c-0.6,0.9-1.3,1.6-2.1,2.1c-0.9,0.6-1.8,1-2.9,1.2c-1.1,0.2-2.1,0.4-3.2,0.4c-1.3,0-2.5-0.2-3.7-0.5c-1.2-0.3-2.2-0.8-3.1-1.5
		c-0.9-0.7-1.6-1.5-2.1-2.5S8.8,19,8.8,17.6h2.9c0,1,0.2,1.8,0.6,2.5s0.9,1.3,1.5,1.7c0.6,0.5,1.3,0.8,2.2,1
		c0.8,0.2,1.7,0.3,2.5,0.3c0.7,0,1.4-0.1,2.1-0.2c0.7-0.1,1.3-0.4,1.9-0.7c0.6-0.3,1-0.7,1.4-1.3c0.3-0.5,0.5-1.2,0.5-2.1
		c0-0.8-0.2-1.5-0.6-2c-0.4-0.5-1-0.9-1.7-1.2c-0.7-0.3-1.5-0.6-2.4-0.8c-0.9-0.2-1.8-0.4-2.7-0.6c-0.9-0.2-1.8-0.4-2.7-0.7
		c-0.9-0.3-1.7-0.6-2.4-1.1c-0.7-0.4-1.3-1-1.7-1.7c-0.4-0.7-0.6-1.6-0.6-2.7c0-1.2,0.2-2.2,0.7-3c0.5-0.9,1.1-1.6,1.9-2.1
		s1.7-1,2.7-1.2c1-0.3,2-0.4,3.1-0.4c1.2,0,2.3,0.1,3.3,0.4c1,0.3,1.9,0.7,2.7,1.3c0.8,0.6,1.4,1.4,1.8,2.3c0.4,0.9,0.7,2,0.7,3.3
		h-2.9C23.4,7.2,22.8,6,21.7,5.2z"/>
	<path class="st0" d="M37.2,2.1v11.6L49,2.1h4l-9.8,9.4l10.2,13.9h-3.9l-8.4-11.7l-3.9,3.6v8.1h-3.1V2.1H37.2z"/>
	<path class="st0" d="M63.6,2.1v23.2h-3.1V2.1H63.6z"/>
	<path class="st0" d="M84.9,2.1c2.3,0,4.1,0.6,5.3,1.8S92,6.7,92,8.9s-0.6,3.9-1.8,5.1s-3,1.8-5.3,1.8h-7.1v9.5h-3.1V2.1H84.9z
		 M83.8,13.2c1.8,0,3-0.3,3.9-1.1c0.8-0.7,1.2-1.8,1.2-3.2c0-1.4-0.4-2.4-1.2-3.2s-2.1-1.1-3.9-1.1h-6.1v8.5H83.8z"/>
</g>
</svg>
